<svg width="23" height="22" viewBox="0 0 23 22" fill="none" xmlns="http://www.w3.org/2000/svg">
<g clip-path="url(#clip0_59_222)">
<path d="M20.5165 11C20.5165 8.63615 19.6368 6.35688 18.0485 4.60604C16.4603 2.8552 14.2773 1.75812 11.9246 1.52843" stroke="#F6F5F3" stroke-width="2"/>
<path d="M20.5165 14.3198L22.8165 11.0001H18.2165L20.5165 14.3198Z" fill="#F6F5F3"/>
<path d="M6.2416 19.2416C8.28878 20.4235 10.7026 20.8012 13.013 20.3012C15.3233 19.8012 17.3649 18.4592 18.7402 16.5365" stroke="#F6F5F3" stroke-width="2"/>
<path d="M3.36656 17.5817L5.09155 21.2335L7.39155 17.2498L3.36656 17.5817Z" fill="#F6F5F3"/>
<path d="M6.24174 2.75839C4.19456 3.94033 2.66053 5.84187 1.93838 8.09274C1.21622 10.3436 1.35763 12.7827 2.33506 14.935" stroke="#F6F5F3" stroke-width="2"/>
<path d="M9.11668 1.09844L5.09169 0.766466L7.39168 4.75017L9.11668 1.09844Z" fill="#F6F5F3"/>
</g>
<defs>
<clipPath id="clip0_59_222">
<rect width="23" height="22" fill="white"/>
</clipPath>
</defs>
</svg>
