<svg width="219" height="67" viewBox="0 0 219 67" fill="none" xmlns="http://www.w3.org/2000/svg">
<g filter="url(#filter0_d_513_356)">
<rect x="4" width="211" height="59" rx="4" fill="white"/>
<path d="M19.4091 35V23.3636H26.4318V24.6136H20.8182V28.5455H26.0682V29.7955H20.8182V33.75H26.5227V35H19.4091ZM29.7898 26.2727L31.8807 29.8409L33.9716 26.2727H35.517L32.6989 30.6364L35.517 35H33.9716L31.8807 31.6136L29.7898 35H28.2443L31.017 30.6364L28.2443 26.2727H29.7898ZM40.7301 35.1818C39.8892 35.1818 39.1638 34.9962 38.554 34.625C37.9479 34.25 37.4801 33.7273 37.1506 33.0568C36.8248 32.3826 36.6619 31.5985 36.6619 30.7045C36.6619 29.8106 36.8248 29.0227 37.1506 28.3409C37.4801 27.6553 37.9384 27.1212 38.5256 26.7386C39.1165 26.3523 39.8059 26.1591 40.5938 26.1591C41.0483 26.1591 41.4972 26.2348 41.9403 26.3864C42.3835 26.5379 42.7869 26.7841 43.1506 27.125C43.5142 27.4621 43.804 27.9091 44.0199 28.4659C44.2358 29.0227 44.3438 29.7083 44.3438 30.5227V31.0909H37.6165V29.9318H42.9801C42.9801 29.4394 42.8816 29 42.6847 28.6136C42.4915 28.2273 42.215 27.9223 41.8551 27.6989C41.4991 27.4754 41.0786 27.3636 40.5938 27.3636C40.0597 27.3636 39.5975 27.4962 39.2074 27.7614C38.821 28.0227 38.5237 28.3636 38.3153 28.7841C38.107 29.2045 38.0028 29.6553 38.0028 30.1364V30.9091C38.0028 31.5682 38.1165 32.1269 38.3438 32.5852C38.5748 33.0398 38.8949 33.3864 39.304 33.625C39.7131 33.8598 40.1884 33.9773 40.7301 33.9773C41.0824 33.9773 41.4006 33.928 41.6847 33.8295C41.9725 33.7273 42.2206 33.5758 42.429 33.375C42.6373 33.1705 42.7983 32.9167 42.9119 32.6136L44.2074 32.9773C44.071 33.4167 43.8419 33.803 43.5199 34.1364C43.1979 34.4659 42.8002 34.7235 42.3267 34.9091C41.8532 35.0909 41.321 35.1818 40.7301 35.1818ZM46.3835 35V26.2727H47.679V27.5909H47.7699C47.929 27.1591 48.2169 26.8087 48.6335 26.5398C49.0502 26.2708 49.5199 26.1364 50.0426 26.1364C50.1411 26.1364 50.2642 26.1383 50.4119 26.142C50.5597 26.1458 50.6714 26.1515 50.7472 26.1591V27.5227C50.7017 27.5114 50.5975 27.4943 50.4347 27.4716C50.2756 27.4451 50.107 27.4318 49.929 27.4318C49.5047 27.4318 49.1259 27.5208 48.7926 27.6989C48.4631 27.8731 48.2017 28.1155 48.0085 28.4261C47.8191 28.733 47.7244 29.0833 47.7244 29.4773V35H46.3835ZM55.6165 35.1818C54.7983 35.1818 54.0938 34.9886 53.5028 34.6023C52.9119 34.2159 52.4574 33.6837 52.1392 33.0057C51.821 32.3277 51.6619 31.553 51.6619 30.6818C51.6619 29.7955 51.8248 29.0133 52.1506 28.3352C52.4801 27.6534 52.9384 27.1212 53.5256 26.7386C54.1165 26.3523 54.8059 26.1591 55.5938 26.1591C56.2074 26.1591 56.7604 26.2727 57.2528 26.5C57.7453 26.7273 58.1487 27.0455 58.4631 27.4545C58.7775 27.8636 58.9725 28.3409 59.0483 28.8864H57.7074C57.6051 28.4886 57.3778 28.1364 57.0256 27.8295C56.6771 27.5189 56.2074 27.3636 55.6165 27.3636C55.0938 27.3636 54.6354 27.5 54.2415 27.7727C53.8513 28.0417 53.5464 28.4223 53.3267 28.9148C53.1108 29.4034 53.0028 29.9773 53.0028 30.6364C53.0028 31.3106 53.1089 31.8977 53.321 32.3977C53.5369 32.8977 53.84 33.286 54.2301 33.5625C54.6241 33.839 55.0862 33.9773 55.6165 33.9773C55.965 33.9773 56.2812 33.9167 56.5653 33.7955C56.8494 33.6742 57.09 33.5 57.2869 33.2727C57.4839 33.0455 57.6241 32.7727 57.7074 32.4545H59.0483C58.9725 32.9697 58.785 33.4337 58.4858 33.8466C58.1903 34.2557 57.7983 34.5814 57.3097 34.8239C56.8248 35.0625 56.2604 35.1818 55.6165 35.1818ZM61.0085 35V26.2727H62.3494V35H61.0085ZM61.6903 24.8182C61.429 24.8182 61.2036 24.7292 61.0142 24.5511C60.8286 24.3731 60.7358 24.1591 60.7358 23.9091C60.7358 23.6591 60.8286 23.4451 61.0142 23.267C61.2036 23.089 61.429 23 61.6903 23C61.9517 23 62.1752 23.089 62.3608 23.267C62.5502 23.4451 62.6449 23.6591 62.6449 23.9091C62.6449 24.1591 62.5502 24.3731 62.3608 24.5511C62.1752 24.7292 61.9517 24.8182 61.6903 24.8182ZM70.9872 28.2273L69.7827 28.5682C69.7069 28.3674 69.5952 28.1723 69.4474 27.983C69.3035 27.7898 69.1065 27.6307 68.8565 27.5057C68.6065 27.3807 68.2865 27.3182 67.8963 27.3182C67.3622 27.3182 66.9171 27.4413 66.5611 27.6875C66.2088 27.9299 66.0327 28.2386 66.0327 28.6136C66.0327 28.947 66.1539 29.2102 66.3963 29.4034C66.6387 29.5966 67.0175 29.7576 67.5327 29.8864L68.8281 30.2045C69.6084 30.3939 70.1899 30.6837 70.5724 31.0739C70.955 31.4602 71.1463 31.9583 71.1463 32.5682C71.1463 33.0682 71.0024 33.5152 70.7145 33.9091C70.4304 34.303 70.0327 34.6136 69.5213 34.8409C69.0099 35.0682 68.4152 35.1818 67.7372 35.1818C66.8471 35.1818 66.1103 34.9886 65.527 34.6023C64.9437 34.2159 64.5743 33.6515 64.419 32.9091L65.6918 32.5909C65.813 33.0606 66.0421 33.4129 66.3793 33.6477C66.7202 33.8826 67.1652 34 67.7145 34C68.3395 34 68.8357 33.8674 69.2031 33.6023C69.5743 33.3333 69.7599 33.0114 69.7599 32.6364C69.7599 32.3333 69.6539 32.0795 69.4418 31.875C69.2296 31.6667 68.9039 31.5114 68.4645 31.4091L67.0099 31.0682C66.2107 30.8788 65.6236 30.5852 65.2486 30.1875C64.8774 29.786 64.6918 29.2841 64.6918 28.6818C64.6918 28.1894 64.83 27.7538 65.1065 27.375C65.3868 26.9962 65.7675 26.6989 66.2486 26.483C66.7334 26.267 67.2827 26.1591 67.8963 26.1591C68.7599 26.1591 69.438 26.3485 69.9304 26.7273C70.4266 27.1061 70.7789 27.6061 70.9872 28.2273ZM76.8239 35.1818C75.983 35.1818 75.2576 34.9962 74.6477 34.625C74.0417 34.25 73.5739 33.7273 73.2443 33.0568C72.9186 32.3826 72.7557 31.5985 72.7557 30.7045C72.7557 29.8106 72.9186 29.0227 73.2443 28.3409C73.5739 27.6553 74.0322 27.1212 74.6193 26.7386C75.2102 26.3523 75.8996 26.1591 76.6875 26.1591C77.142 26.1591 77.5909 26.2348 78.0341 26.3864C78.4773 26.5379 78.8807 26.7841 79.2443 27.125C79.608 27.4621 79.8977 27.9091 80.1136 28.4659C80.3295 29.0227 80.4375 29.7083 80.4375 30.5227V31.0909H73.7102V29.9318H79.0739C79.0739 29.4394 78.9754 29 78.7784 28.6136C78.5852 28.2273 78.3087 27.9223 77.9489 27.6989C77.5928 27.4754 77.1723 27.3636 76.6875 27.3636C76.1534 27.3636 75.6913 27.4962 75.3011 27.7614C74.9148 28.0227 74.6174 28.3636 74.4091 28.7841C74.2008 29.2045 74.0966 29.6553 74.0966 30.1364V30.9091C74.0966 31.5682 74.2102 32.1269 74.4375 32.5852C74.6686 33.0398 74.9886 33.3864 75.3977 33.625C75.8068 33.8598 76.2822 33.9773 76.8239 33.9773C77.1761 33.9773 77.4943 33.928 77.7784 33.8295C78.0663 33.7273 78.3144 33.5758 78.5227 33.375C78.7311 33.1705 78.892 32.9167 79.0057 32.6136L80.3011 32.9773C80.1648 33.4167 79.9356 33.803 79.6136 34.1364C79.2917 34.4659 78.8939 34.7235 78.4205 34.9091C77.947 35.0909 77.4148 35.1818 76.8239 35.1818Z" fill="#343434"/>
<rect width="39" height="39" transform="translate(162 10)" fill="white" fill-opacity="0.27"/>
<path d="M191.25 30.7188H182.719V39.25H180.281V30.7188H171.75V28.2812H180.281V19.75H182.719V28.2812H191.25V30.7188Z" fill="#F6F5F3"/>
<path d="M181.5 12.4375C176.992 12.4919 172.683 14.307 169.495 17.4951C166.307 20.6833 164.492 24.9916 164.438 29.5C164.492 34.0084 166.307 38.3167 169.495 41.5049C172.683 44.693 176.992 46.5081 181.5 46.5625C186.008 46.5081 190.317 44.693 193.505 41.5049C196.693 38.3167 198.508 34.0084 198.562 29.5C198.508 24.9916 196.693 20.6833 193.505 17.4951C190.317 14.307 186.008 12.4919 181.5 12.4375V12.4375ZM191.25 30.7188H182.719V39.25H180.281V30.7188H171.75V28.2812H180.281V19.75H182.719V28.2812H191.25V30.7188Z" fill="#343434"/>
</g>
<defs>
<filter id="filter0_d_513_356" x="0" y="0" width="219" height="67" filterUnits="userSpaceOnUse" color-interpolation-filters="sRGB">
<feFlood flood-opacity="0" result="BackgroundImageFix"/>
<feColorMatrix in="SourceAlpha" type="matrix" values="0 0 0 0 0 0 0 0 0 0 0 0 0 0 0 0 0 0 127 0" result="hardAlpha"/>
<feOffset dy="4"/>
<feGaussianBlur stdDeviation="2"/>
<feComposite in2="hardAlpha" operator="out"/>
<feColorMatrix type="matrix" values="0 0 0 0 0 0 0 0 0 0 0 0 0 0 0 0 0 0 0.25 0"/>
<feBlend mode="normal" in2="BackgroundImageFix" result="effect1_dropShadow_513_356"/>
<feBlend mode="normal" in="SourceGraphic" in2="effect1_dropShadow_513_356" result="shape"/>
</filter>
</defs>
</svg>
